<mxfile host="drawio-plugin" modified="2023-11-09T18:20:53.438Z" agent="5.0 (Macintosh; Intel Mac OS X 10_15_7) AppleWebKit/537.36 (KHTML, like Gecko) Chrome/111.0.0.0 Safari/537.36" etag="6xJzjvcKSWTKnJRpQ8JB" version="20.5.3" type="embed"><diagram id="6nOcRAwLejFYc5g56x9Y" name="Page-1"><mxGraphModel dx="407" dy="367" grid="0" gridSize="10" guides="1" tooltips="1" connect="1" arrows="1" fold="1" page="1" pageScale="1" pageWidth="850" pageHeight="1100" math="0" shadow="0"><root><mxCell id="0"/><mxCell id="1" parent="0"/><mxCell id="Vnv7Rkrh4nzxl0tCbxrw-45" value="" style="group" parent="1" vertex="1" connectable="0"><mxGeometry x="145" y="178" width="573" height="390" as="geometry"/></mxCell><mxCell id="Vnv7Rkrh4nzxl0tCbxrw-1" value="" style="verticalLabelPosition=bottom;verticalAlign=top;html=1;shadow=0;dashed=0;strokeWidth=1;shape=mxgraph.android.phone2;strokeColor=#c0c0c0;" parent="Vnv7Rkrh4nzxl0tCbxrw-45" vertex="1"><mxGeometry width="200" height="390" as="geometry"/></mxCell><mxCell id="Vnv7Rkrh4nzxl0tCbxrw-2" value="" style="strokeWidth=1;html=1;shadow=0;dashed=0;shape=mxgraph.android.textfield;align=center;strokeColor=#33b5e5;pointerEvents=1" parent="Vnv7Rkrh4nzxl0tCbxrw-45" vertex="1"><mxGeometry x="20" y="90" width="120" height="30" as="geometry"/></mxCell><mxCell id="Vnv7Rkrh4nzxl0tCbxrw-3" value="" style="strokeWidth=1;html=1;shadow=0;dashed=0;shape=mxgraph.android.textfield;align=center;strokeColor=#4D4D4D;pointerEvents=1" parent="Vnv7Rkrh4nzxl0tCbxrw-45" vertex="1"><mxGeometry x="20" y="180" width="120" height="30" as="geometry"/></mxCell><mxCell id="Vnv7Rkrh4nzxl0tCbxrw-4" value="" style="strokeWidth=1;html=1;shadow=0;dashed=0;shape=mxgraph.android.textfield;align=center;strokeColor=#4D4D4D;pointerEvents=1" parent="Vnv7Rkrh4nzxl0tCbxrw-45" vertex="1"><mxGeometry x="18.5" y="280" width="121.5" height="30" as="geometry"/></mxCell><mxCell id="Vnv7Rkrh4nzxl0tCbxrw-5" value="" style="shape=mxgraph.mockup.markup.redX;fillColor=#ff0000;html=1;shadow=0;strokeColor=none;" parent="Vnv7Rkrh4nzxl0tCbxrw-45" vertex="1"><mxGeometry x="172" y="106" width="10" height="10" as="geometry"/></mxCell><mxCell id="Vnv7Rkrh4nzxl0tCbxrw-23" value="" style="shape=image;html=1;verticalAlign=top;verticalLabelPosition=bottom;labelBackgroundColor=#ffffff;imageAspect=0;aspect=fixed;image=https://cdn1.iconfinder.com/data/icons/ios-11-glyphs/30/save-128.png" parent="Vnv7Rkrh4nzxl0tCbxrw-45" vertex="1"><mxGeometry x="153" y="103" width="16" height="16" as="geometry"/></mxCell><mxCell id="Vnv7Rkrh4nzxl0tCbxrw-24" value="Saved name" style="text;html=1;align=center;verticalAlign=middle;resizable=0;points=[];autosize=1;strokeColor=none;fillColor=none;fontSize=9;" parent="Vnv7Rkrh4nzxl0tCbxrw-45" vertex="1"><mxGeometry x="8" y="83" width="70" height="20" as="geometry"/></mxCell><mxCell id="Vnv7Rkrh4nzxl0tCbxrw-25" value="Name in Google" style="text;html=1;align=center;verticalAlign=middle;resizable=0;points=[];autosize=1;strokeColor=none;fillColor=none;fontSize=9;" parent="Vnv7Rkrh4nzxl0tCbxrw-45" vertex="1"><mxGeometry x="11" y="173" width="80" height="20" as="geometry"/></mxCell><mxCell id="Vnv7Rkrh4nzxl0tCbxrw-26" value="Permissions" style="text;html=1;align=center;verticalAlign=middle;resizable=0;points=[];autosize=1;strokeColor=none;fillColor=none;fontSize=9;" parent="Vnv7Rkrh4nzxl0tCbxrw-45" vertex="1"><mxGeometry x="11" y="274" width="60" height="20" as="geometry"/></mxCell><mxCell id="Vnv7Rkrh4nzxl0tCbxrw-28" value="App Starter" style="strokeWidth=1;html=1;shadow=0;dashed=0;shape=stencil(xZPRDoIgFIafhtuGELUuzeo9SClZBg4o6+1DjrWhSze7iLGx8/3j/PAPEM1syWuBCOa2FrlDdIcIuXMj+bHymHilBEgxlIpfBZA0d1Irj7bcgGad0RfRyMJ1m6QqhZEO1AZYsl62Nd0jnHraTprlWikR+tnADj39pI04G31TRSS8ZdOefXDU2JDgB9Sd+oyqvuXHWFbViAw3znWlfQQY1tAWEboJY7w97J/wn98+zoVFsbAolISxKJbVT7HM903Igv3LeiLML8Y082TwPgOFzxXACw==);fillColor=#1A1A1A;strokeColor=#c0c0c0;strokeWidth=2;fontColor=#FFFFFF;fontSize=12;align=left;spacingLeft=10;points=[[0,0.5,0,0,0],[1,0.5,0,0,0]];" parent="Vnv7Rkrh4nzxl0tCbxrw-45" vertex="1"><mxGeometry x="8" y="34" width="185" height="30" as="geometry"/></mxCell><mxCell id="Vnv7Rkrh4nzxl0tCbxrw-39" value="" style="endArrow=classic;html=1;rounded=0;fontSize=12;entryX=0.009;entryY=0.519;entryDx=0;entryDy=0;entryPerimeter=0;exitX=1;exitY=0.5;exitDx=0;exitDy=0;exitPerimeter=0;" parent="Vnv7Rkrh4nzxl0tCbxrw-45" source="Vnv7Rkrh4nzxl0tCbxrw-28" edge="1"><mxGeometry width="50" height="50" relative="1" as="geometry"><mxPoint x="221" y="33" as="sourcePoint"/><mxPoint x="210.702" y="49.950000000000045" as="targetPoint"/></mxGeometry></mxCell><mxCell id="Vnv7Rkrh4nzxl0tCbxrw-40" value="" style="endArrow=classic;html=1;rounded=0;fontSize=12;exitX=0.949;exitY=0.773;exitDx=0;exitDy=0;exitPerimeter=0;entryX=0.008;entryY=0.143;entryDx=0;entryDy=0;entryPerimeter=0;" parent="Vnv7Rkrh4nzxl0tCbxrw-45" target="Vnv7Rkrh4nzxl0tCbxrw-29" edge="1"><mxGeometry width="50" height="50" relative="1" as="geometry"><mxPoint x="284.02199999999993" y="33.66250000000002" as="sourcePoint"/><mxPoint x="370" y="186" as="targetPoint"/></mxGeometry></mxCell><mxCell id="Vnv7Rkrh4nzxl0tCbxrw-41" value="" style="endArrow=classic;html=1;rounded=0;fontSize=12;entryX=0.992;entryY=0.473;entryDx=0;entryDy=0;entryPerimeter=0;exitX=0.07;exitY=0.5;exitDx=0;exitDy=0;exitPerimeter=0;" parent="Vnv7Rkrh4nzxl0tCbxrw-45" source="Vnv7Rkrh4nzxl0tCbxrw-30" target="Vnv7Rkrh4nzxl0tCbxrw-1" edge="1"><mxGeometry width="50" height="50" relative="1" as="geometry"><mxPoint x="320" y="236" as="sourcePoint"/><mxPoint x="370" y="186" as="targetPoint"/></mxGeometry></mxCell><mxCell id="Vnv7Rkrh4nzxl0tCbxrw-44" value="" style="group" parent="Vnv7Rkrh4nzxl0tCbxrw-45" vertex="1" connectable="0"><mxGeometry x="373" width="200" height="390" as="geometry"/></mxCell><mxCell id="Vnv7Rkrh4nzxl0tCbxrw-29" value="" style="verticalLabelPosition=bottom;verticalAlign=top;html=1;shadow=0;dashed=0;strokeWidth=1;shape=mxgraph.android.phone2;strokeColor=#c0c0c0;fontSize=9;" parent="Vnv7Rkrh4nzxl0tCbxrw-44" vertex="1"><mxGeometry width="200" height="390" as="geometry"/></mxCell><mxCell id="Vnv7Rkrh4nzxl0tCbxrw-30" value="← Settings" style="strokeWidth=1;html=1;shadow=0;dashed=0;shape=stencil(nZLhCsIgFIWfxv/mDaKfa9V7mLMmmXeoa/X2Oe8KttGCRJDzHbznepFBGWrZaCa4DI1WkcGeCXGX3siTTVgkpyYInKSTN02kUNGgS2gnPXkherzqzlRxuGRcrb2J5HbEVpt1r+HAeJFov6FU6JzO9UJmx4l/Rq8vHltXjYy37fveZ62OAwV/kB7c50hNIz/BxtoFm16s0GIaAaczl2UCtnktl6f7P/L/L/+leygTmY00U/oPGbwA);fillColor=#1A1A1A;strokeColor=#c0c0c0;strokeWidth=2;fontColor=#FFFFFF;fontSize=12;align=left;spacingLeft=10;spacingTop=0;points=[[0.07,0.5,0,0,0]];" parent="Vnv7Rkrh4nzxl0tCbxrw-44" vertex="1"><mxGeometry x="7.5" y="34" width="185" height="30" as="geometry"/></mxCell><mxCell id="Vnv7Rkrh4nzxl0tCbxrw-42" value="" style="verticalLabelPosition=bottom;verticalAlign=top;html=1;shadow=0;dashed=0;strokeWidth=1;shape=mxgraph.android.switch_on;fillColor=#666666;sketch=0;fontSize=12;" parent="Vnv7Rkrh4nzxl0tCbxrw-44" vertex="1"><mxGeometry x="140" y="87" width="42" height="16" as="geometry"/></mxCell><mxCell id="Vnv7Rkrh4nzxl0tCbxrw-43" value="Selectable static text" style="text;html=1;align=center;verticalAlign=middle;resizable=0;points=[];autosize=1;strokeColor=none;fillColor=none;fontSize=12;" parent="Vnv7Rkrh4nzxl0tCbxrw-44" vertex="1"><mxGeometry x="13" y="87" width="120" height="18" as="geometry"/></mxCell></root></mxGraphModel></diagram></mxfile>